<?xml version="1.0" encoding="UTF-8"?>
<svg version="1.1" xmlns="http://www.w3.org/2000/svg" width="900" height="900">
<path d="M0 0 C3.58781204 0.00511383 7.17560701 -0.0014623 10.76341657 -0.00648667 C17.0399605 -0.01368344 23.31646998 -0.01350735 29.59301547 -0.00839235 C38.92668328 -0.00080676 48.26032218 -0.00470555 57.59398981 -0.01080896 C74.26687027 -0.02132622 90.93973537 -0.02043332 107.61261728 -0.01465113 C122.2035168 -0.00961595 136.79441071 -0.00830852 151.38531093 -0.01069642 C152.35393205 -0.01084919 153.32255318 -0.01100196 154.32052646 -0.01115936 C158.2526782 -0.01178206 162.18482993 -0.01241886 166.11698166 -0.01307889 C202.98811768 -0.01919407 239.85924393 -0.01365444 276.73037843 -0.0028851 C309.47342899 0.0066058 342.21646399 0.00575653 374.95951442 -0.00380708 C411.76410182 -0.0145211 448.56868061 -0.01876035 485.37326936 -0.01258255 C489.29817148 -0.01194114 493.2230736 -0.01131545 497.14797572 -0.01069642 C498.11435536 -0.01053827 499.08073499 -0.01038011 500.07639886 -0.01021717 C514.65654477 -0.00794419 529.23668444 -0.01059911 543.81682948 -0.01565553 C560.39850772 -0.02137749 576.98016823 -0.01993702 593.56184427 -0.00909404 C602.8369542 -0.00322866 612.11202572 -0.00282774 621.38713464 -0.01038639 C627.58827932 -0.01488175 633.78939331 -0.01206092 639.99053345 -0.00337685 C643.51979684 0.00136497 647.04898412 0.00304039 650.57824502 -0.00418882 C685.41838462 -0.05996174 685.41838462 -0.05996174 699.86429957 6.03818511 C702.77013593 7.3079172 702.77013593 7.3079172 705.88383082 8.25693511 C708.53839475 9.17775945 710.51343477 10.19727925 712.82914332 11.75693511 C714.8924395 13.14090473 716.68514735 14.22751774 719.02836207 15.07334136 C722.9192178 16.7551235 726.11906557 19.18389355 729.51664332 21.69443511 C730.20113551 22.18492339 730.8856277 22.67541167 731.59086207 23.18076323 C732.24183864 23.65836089 732.8928152 24.13595855 733.56351832 24.62802886 C734.15487574 25.06042876 734.74623317 25.49282866 735.35551051 25.93833159 C736.76664332 27.25693511 736.76664332 27.25693511 737.76664332 30.25693511 C740.27111848 31.4756344 740.27111848 31.4756344 742.76664332 32.25693511 C742.76664332 32.91693511 742.76664332 33.57693511 742.76664332 34.25693511 C743.42664332 34.25693511 744.08664332 34.25693511 744.76664332 34.25693511 C744.76664332 35.24693511 744.76664332 36.23693511 744.76664332 37.25693511 C745.34929957 37.4979898 745.93195582 37.73904448 746.53226832 37.98740386 C756.73439108 43.78406452 764.19791018 59.80784282 768.5256627 70.28965359 C769.31742625 72.18282203 770.15940953 74.05627372 771.0643752 75.89801567 C776.2386364 87.73302873 775.47008095 99.98388471 775.39657837 112.67151041 C775.38198383 116.15669466 775.39665442 119.64178305 775.40746335 123.12696426 C775.42239223 129.22471085 775.41888182 135.32222649 775.40304545 141.41996764 C775.3795616 150.48740379 775.38484543 159.55466698 775.39575435 168.62211884 C775.41431651 184.8176649 775.40464944 201.01310075 775.38327672 217.2086378 C775.36470936 231.37861162 775.35629886 245.54854846 775.35784511 259.71853446 C775.35798262 261.12920546 775.35798262 261.12920546 775.35812291 262.56837486 C775.35851607 266.38603946 775.3589657 270.20370404 775.3594943 274.02136862 C775.36436315 309.8178614 775.34171675 345.61428857 775.30553807 381.41076096 C775.27353278 413.21374729 775.26149683 445.01667761 775.26761989 476.81967925 C775.26800673 478.86249767 775.26839319 480.90531609 775.26877926 482.94813451 C775.2689706 483.95806681 775.26916195 484.9679991 775.26935909 486.00853541 C775.27031343 491.09240755 775.2712278 496.1762797 775.27209834 501.26015185 C775.27235903 502.76461237 775.27235903 502.76461237 775.27262499 504.29946602 C775.27697937 530.8786854 775.26696785 557.45789874 775.25226048 584.03711383 C775.25174034 584.98249053 775.2512202 585.92786723 775.2506843 586.9018917 C775.24990528 588.31736436 775.24990528 588.31736436 775.24911053 589.76143242 C775.24859279 590.70335113 775.24807505 591.64526984 775.24754162 592.61573153 C775.24649353 594.51265065 775.24543332 596.40956977 775.2443609 598.30648887 C775.23697935 611.53239418 775.23489224 624.75829092 775.2363549 637.98419803 C775.23819999 655.0241772 775.23014402 672.06410359 775.20471344 689.1040655 C775.19154384 698.11605195 775.1865403 707.12795414 775.19335198 716.13994815 C775.19706119 722.15809174 775.18986564 728.17615837 775.1737596 734.1942814 C775.16487844 737.62398033 775.16069758 741.05350581 775.16968677 744.48320844 C775.17684117 748.17858319 775.16563081 751.87346187 775.14975337 755.56879901 C775.15620517 756.63210892 775.16265698 757.69541883 775.16930429 758.79095026 C775.10276301 767.01311852 773.16789242 773.62124802 769.64164332 781.00693511 C768.23178749 784.07955985 767.20312108 786.87423252 766.76664332 790.25693511 C766.10664332 790.25693511 765.44664332 790.25693511 764.76664332 790.25693511 C764.64289332 791.27787261 764.64289332 791.27787261 764.51664332 792.31943511 C762.89120522 798.68573433 758.71990741 803.86903912 754.70414332 808.94443511 C753.83810958 810.0523921 752.97222058 811.16046226 752.10648707 812.26865386 C751.33433864 813.25478667 750.5621902 814.24091948 749.76664332 815.25693511 C749.21105739 816.04713042 748.65547145 816.83732573 748.08304957 817.65146636 C747.64863551 818.18127105 747.21422145 818.71107573 746.76664332 819.25693511 C746.10664332 819.25693511 745.44664332 819.25693511 744.76664332 819.25693511 C744.53976832 819.81896636 744.31289332 820.38099761 744.07914332 820.96006011 C742.39734698 823.90320371 740.29555222 825.75738243 737.76664332 828.00693511 C736.87976832 828.80615386 735.99289332 829.60537261 735.07914332 830.42881011 C732.76664332 832.25693511 732.76664332 832.25693511 730.76664332 832.25693511 C730.76664332 832.91693511 730.76664332 833.57693511 730.76664332 834.25693511 C729.15789332 835.15412261 729.15789332 835.15412261 727.51664332 836.06943511 C725.46584895 837.23428631 723.62884397 838.36459086 721.76664332 839.81943511 C719.53143369 841.42599203 717.20707966 842.41398233 714.66483668 843.44663237 C712.76233988 844.25877217 710.97103008 845.18763271 709.14554957 846.15927886 C704.56447379 848.46460464 699.86784321 849.95208248 694.95414332 851.38193511 C694.12849879 851.6333023 693.30285426 851.88466948 692.4521902 852.14365386 C682.13318541 855.20172975 672.30719935 856.55484575 661.54964808 856.51699733 C660.36247492 856.520803 659.17530176 856.52460867 657.95215366 856.52852966 C654.67373454 856.53702584 651.39545816 856.53667139 648.11703528 856.5324743 C644.54380825 856.5300982 640.97060718 856.53928991 637.39739016 856.54695849 C631.14014625 856.55878116 624.88293147 856.56317222 618.62567691 856.56263732 C609.32041688 856.56184276 600.01519353 856.5724076 590.70994332 856.58505289 C572.15312524 856.60977001 553.59631613 856.61857316 535.03948385 856.62358938 C533.59858356 856.62398114 533.59858356 856.62398114 532.12857417 856.62438082 C530.68472745 856.62477123 530.68472745 856.62477123 529.2117121 856.62516953 C518.5370076 856.62825385 507.86230558 856.63475933 497.1876028 856.64138221 C464.93599677 856.66102774 432.68439341 856.67743345 400.43278102 856.68025874 C399.40156702 856.6803528 398.37035303 856.68044686 397.30789012 856.68054377 C393.12896717 856.68092225 388.95004421 856.68128624 384.77112126 856.68164675 C381.62591116 856.68191847 378.48070107 856.68219515 375.33549098 856.68247222 C374.29619211 856.68256024 373.25689324 856.68264826 372.18610046 856.68273895 C339.53762847 856.68564379 306.88921571 856.70773567 274.24076442 856.74399566 C237.54749968 856.784747 200.8542753 856.80841749 164.1609867 856.80871825 C160.24606112 856.80881507 156.33113555 856.80898179 152.41620997 856.80919837 C151.45228033 856.80924248 150.48835068 856.8092866 149.49521105 856.80933205 C134.00201299 856.81045059 118.5088744 856.82784017 103.01569547 856.85101769 C87.43572057 856.87389216 71.85582579 856.87806483 56.27584026 856.86346839 C47.0281719 856.85533443 37.78075639 856.86094565 28.53311884 856.88664924 C22.34502374 856.90245629 16.1571072 856.89986805 9.96901621 856.88274251 C6.45029608 856.87351228 2.93206118 856.87184582 -0.58662017 856.89270858 C-15.15084643 856.96259851 -28.44085088 856.49717777 -42.33944222 851.87700414 C-45.31788006 850.90186133 -48.33839583 850.09359543 -51.35835668 849.25693511 C-56.7774803 847.5441906 -61.41631057 845.24178332 -66.23335668 842.25693511 C-67.07898168 841.75806792 -67.92460668 841.25920073 -68.79585668 840.74521636 C-75.9293744 836.53092092 -82.55031495 832.23739628 -88.60835668 826.56943511 C-89.45599584 825.78149566 -89.45599584 825.78149566 -90.32075902 824.97763823 C-96.09754199 819.5457132 -101.72783538 813.81042063 -106.23335668 807.25693511 C-106.23335668 806.59693511 -106.23335668 805.93693511 -106.23335668 805.25693511 C-106.89335668 805.25693511 -107.55335668 805.25693511 -108.23335668 805.25693511 C-110.23335668 802.25693511 -110.23335668 802.25693511 -110.23335668 798.25693511 C-110.89335668 798.25693511 -111.55335668 798.25693511 -112.23335668 798.25693511 C-116.48809403 791.25019743 -119.49161053 783.96920169 -122.23335668 776.25693511 C-122.48453126 775.63256537 -122.73570585 775.00819563 -122.99449178 774.3649056 C-125.38147518 768.04681686 -125.65635253 762.31963376 -125.61367341 755.61285781 C-125.62066329 753.88857956 -125.62066329 753.88857956 -125.62779438 752.12946742 C-125.63766492 748.94729902 -125.63417203 745.76547366 -125.6249607 742.58331384 C-125.61823832 739.11806009 -125.62892333 735.65285197 -125.63735654 732.18760799 C-125.64972213 726.11701208 -125.65093635 720.04649345 -125.64480611 713.97588919 C-125.63571439 704.94847532 -125.64374766 695.92113291 -125.65509735 686.89372451 C-125.67476891 670.7695165 -125.67711067 654.64534062 -125.67190215 638.52112348 C-125.66734554 624.4080853 -125.66794344 610.29505985 -125.6737425 596.18202208 C-125.67449936 594.28914658 -125.67525534 592.39627107 -125.67601044 590.50339556 C-125.67715563 587.65100913 -125.67830551 584.7986227 -125.67946968 581.94623628 C-125.69017577 555.42475453 -125.6948989 528.90327702 -125.68699952 502.38179396 C-125.68670235 501.38191955 -125.68640518 500.38204514 -125.686099 499.3518715 C-125.68365005 491.23213418 -125.68103847 483.11239692 -125.67841486 474.99265965 C-125.66831386 443.32470919 -125.67666461 411.65681176 -125.69990941 379.9888687 C-125.72598336 344.40902619 -125.73882945 308.8292156 -125.73172166 273.24936317 C-125.7310056 269.45527919 -125.73033121 265.66119519 -125.72968122 261.86711119 C-125.72951141 260.93291332 -125.7293416 259.99871545 -125.72916664 259.03620855 C-125.72686386 244.93545302 -125.73483972 230.83472714 -125.74797269 216.73397826 C-125.76288337 200.69592372 -125.76372795 184.65793864 -125.74590178 168.61988558 C-125.73633844 159.64650412 -125.73777429 150.67328468 -125.75513647 141.69991403 C-125.76562947 135.70222938 -125.76152063 129.70466808 -125.74565643 123.70699556 C-125.73702874 120.29205425 -125.73680425 116.87768943 -125.74992575 113.46272393 C-125.7630826 109.7763116 -125.75152225 106.09075277 -125.73392793 102.40437697 C-125.74357844 101.35495891 -125.75322895 100.30554085 -125.7631719 99.22432225 C-125.62544189 85.1471844 -120.04328574 70.5856325 -112.28023168 58.91709136 C-111.11085279 57.18680801 -111.11085279 57.18680801 -110.29585668 54.75693511 C-107.60517437 48.42591791 -102.17676473 42.02166576 -97.23335668 37.25693511 C-96.57335668 37.25693511 -95.91335668 37.25693511 -95.23335668 37.25693511 C-94.83116918 36.35974761 -94.83116918 36.35974761 -94.42085668 35.44443511 C-93.23418261 33.25845657 -92.13736555 31.84360917 -90.23335668 30.25693511 C-89.57335668 30.25693511 -88.91335668 30.25693511 -88.23335668 30.25693511 C-88.00648168 29.67943511 -87.77960668 29.10193511 -87.54585668 28.50693511 C-85.8338012 25.57198287 -83.99895171 24.27351482 -81.23335668 22.25693511 C-80.53081761 21.72970855 -79.82827855 21.20248198 -79.10445043 20.65927886 C-70.79925601 14.59368743 -61.77207907 10.07242407 -52.23335668 6.25693511 C-51.46120824 5.92822417 -50.6890598 5.59951323 -49.89351293 5.26084136 C-33.99980703 -1.11064427 -16.81667051 -0.03444665 0 0 Z " fill="#2B3338" transform="translate(125.23335667699575,28.743064891546965)"/>
<path d="M0 0 C0.98879906 -0.00287018 0.98879906 -0.00287018 1.99757385 -0.00579834 C3.38160589 -0.00714962 4.76565106 -0.00352766 6.1496582 0.00488281 C8.24525005 0.01558081 10.3399815 0.00496084 12.43554688 -0.0078125 C19.17845194 -0.01382892 25.36733449 0.1686365 31.81640625 2.265625 C31.81640625 2.925625 31.81640625 3.585625 31.81640625 4.265625 C32.84765625 4.513125 33.87890625 4.760625 34.94140625 5.015625 C38.74914773 6.1013354 41.6804274 7.81803175 44.81640625 10.265625 C44.81640625 10.925625 44.81640625 11.585625 44.81640625 12.265625 C45.80640625 12.595625 46.79640625 12.925625 47.81640625 13.265625 C47.81640625 13.925625 47.81640625 14.585625 47.81640625 15.265625 C48.47640625 15.265625 49.13640625 15.265625 49.81640625 15.265625 C49.81640625 15.925625 49.81640625 16.585625 49.81640625 17.265625 C50.39390625 17.4925 50.97140625 17.719375 51.56640625 17.953125 C55.68825991 20.35753963 57.79711363 24.06621114 59.81640625 28.265625 C59.83098877 27.61489014 59.84557129 26.96415527 59.8605957 26.29370117 C59.93505174 23.34624194 60.03171891 20.39991858 60.12890625 17.453125 C60.16274414 15.91688477 60.16274414 15.91688477 60.19726562 14.34960938 C60.23271484 13.36669922 60.26816406 12.38378906 60.3046875 11.37109375 C60.33087158 10.46512451 60.35705566 9.55915527 60.3840332 8.62573242 C60.81640625 6.265625 60.81640625 6.265625 61.89257812 4.46484375 C64.82762647 2.63528062 67.76209875 2.89693605 71.109375 2.97265625 C72.16841789 2.97902351 72.16841789 2.97902351 73.24885559 2.98551941 C75.50092928 3.00229466 77.75210367 3.03994257 80.00390625 3.078125 C81.5318881 3.09317343 83.05988401 3.10686156 84.58789062 3.11914062 C88.33107497 3.15219411 92.07358821 3.20396668 95.81640625 3.265625 C96.96985607 5.57252464 96.94267177 6.87256451 96.9450407 9.43891811 C96.94826515 10.3188658 96.9514896 11.19881348 96.95481175 12.10542625 C96.95248885 13.56439664 96.95248885 13.56439664 96.95011902 15.05284119 C96.95238458 16.08148853 96.95465013 17.11013588 96.95698434 18.16995436 C96.96334747 21.6392744 96.9624935 25.10855561 96.96166992 28.57788086 C96.96465996 31.05603588 96.96806212 33.53419043 96.97184753 36.01234436 C96.97978577 42.05835872 96.98290286 48.10435764 96.98345991 54.15037578 C96.98393455 59.06306181 96.98598665 63.97574462 96.98916054 68.88842964 C96.99796989 82.80647515 97.00257945 96.72451293 97.00183006 110.64256125 C97.00179011 111.39336516 97.00175015 112.14416907 97.00170898 112.91772461 C97.0016681 113.6694416 97.00162722 114.42115859 97.0015851 115.19565488 C97.00117851 127.38291667 97.01075071 139.57014759 97.02484735 151.75740045 C97.03919626 164.26106767 97.04611836 176.76471981 97.04525357 189.26839548 C97.0449211 196.29234118 97.04769024 203.3162545 97.05843163 210.34019279 C97.06846461 216.94338666 97.06821651 223.54652365 97.06091499 230.14972496 C97.0598647 232.57859141 97.06225816 235.00746204 97.06827545 237.43632126 C97.07593572 240.74143789 97.07139034 244.04631412 97.06364441 247.35142517 C97.06878797 248.32184138 97.07393154 249.29225758 97.07923096 250.29208034 C97.07463217 251.17463578 97.07003337 252.05719121 97.06529522 252.96649075 C97.06562127 254.11143006 97.06562127 254.11143006 97.06595391 255.27949947 C96.81640625 257.265625 96.81640625 257.265625 94.81640625 260.265625 C91.68359375 260.65380859 91.68359375 260.65380859 87.69140625 260.6640625 C86.98870605 260.66693268 86.28600586 260.66980286 85.56201172 260.67276001 C84.07583816 260.67480214 82.58963782 260.66926178 81.10351562 260.65673828 C78.82491117 260.64068492 76.54808035 260.65657999 74.26953125 260.67578125 C72.82681899 260.67379884 71.38410784 260.66995521 69.94140625 260.6640625 C68.62398437 260.66067871 67.3065625 260.65729492 65.94921875 260.65380859 C64.91539062 260.52570801 63.8815625 260.39760742 62.81640625 260.265625 C60.22168771 256.37354719 60.50917355 253.088776 60.49755859 248.5715332 C60.48249016 247.2395137 60.48249016 247.2395137 60.46711731 245.88058472 C60.43620245 242.94253187 60.4192271 240.00457049 60.40234375 237.06640625 C60.38363878 235.0304434 60.36406588 232.99448836 60.34365845 230.95854187 C60.29226035 225.59757075 60.25267572 220.23657448 60.21551514 214.87548828 C60.1755236 209.40586078 60.12440916 203.93633861 60.07421875 198.46679688 C59.97736855 187.73314683 59.89299288 176.99943741 59.81640625 166.265625 C59.34154785 166.95414551 58.86668945 167.64266602 58.37744141 168.35205078 C57.43843994 169.70532471 57.43843994 169.70532471 56.48046875 171.0859375 C55.55161865 172.42809326 55.55161865 172.42809326 54.60400391 173.79736328 C51.31238345 178.34233498 47.33871836 181.9655594 42.81640625 185.265625 C42.15640625 185.265625 41.49640625 185.265625 40.81640625 185.265625 C40.48640625 186.255625 40.15640625 187.245625 39.81640625 188.265625 C38.07421875 189.21484375 38.07421875 189.21484375 35.94140625 189.953125 C34.89339844 190.33017578 34.89339844 190.33017578 33.82421875 190.71484375 C31.81640625 191.265625 31.81640625 191.265625 28.81640625 191.265625 C28.81640625 191.925625 28.81640625 192.585625 28.81640625 193.265625 C21.70652639 194.40731979 14.66581012 194.52296655 7.47607422 194.56079102 C5.96360892 194.57226623 4.45118269 194.59264705 2.93896484 194.62231445 C-14.3154971 194.95956589 -29.51960881 190.9568163 -42.48046875 178.91796875 C-43.0425 178.37269531 -43.60453125 177.82742188 -44.18359375 177.265625 C-45.04984375 176.440625 -45.91609375 175.615625 -46.80859375 174.765625 C-47.59234375 173.940625 -48.37609375 173.115625 -49.18359375 172.265625 C-49.65410156 171.77835938 -50.12460938 171.29109375 -50.609375 170.7890625 C-57.19034088 163.61291883 -64.62493116 152.10924179 -65.43359375 142.203125 C-65.35109375 141.56375 -65.26859375 140.924375 -65.18359375 140.265625 C-65.84359375 140.265625 -66.50359375 140.265625 -67.18359375 140.265625 C-71.03081791 127.05796707 -71.58179468 114.11089883 -71.55859375 100.453125 C-71.56004395 99.61981659 -71.56149414 98.78650818 -71.56298828 97.927948 C-71.56016574 83.55290338 -70.59470664 69.59029763 -66.55859375 55.703125 C-66.30134521 54.81399414 -66.04409668 53.92486328 -65.77905273 53.00878906 C-62.33614816 41.75294377 -56.48163558 30.74308395 -48.18359375 22.265625 C-47.52359375 22.265625 -46.86359375 22.265625 -46.18359375 22.265625 C-45.91546875 21.6675 -45.64734375 21.069375 -45.37109375 20.453125 C-44.18441969 18.26714646 -43.08760262 16.85229906 -41.18359375 15.265625 C-40.52359375 15.265625 -39.86359375 15.265625 -39.18359375 15.265625 C-39.18359375 14.605625 -39.18359375 13.945625 -39.18359375 13.265625 C-31.53312946 7.66906914 -23.25391677 4.6729686 -14.18359375 2.265625 C-13.11270508 1.924104 -12.04181641 1.58258301 -10.93847656 1.23071289 C-7.13031677 0.25193164 -3.92271673 0.00730633 0 0 Z " fill="#7EB4B5" transform="translate(185.18359375,339.734375)"/>
<path d="M0 0 C1.09860603 -0.00143509 1.09860603 -0.00143509 2.21940613 -0.00289917 C3.76679572 -0.0035784 5.31418818 -0.00174202 6.86157227 0.00244141 C9.21181771 0.00777021 11.56187003 0.00249969 13.91210938 -0.00390625 C15.42057333 -0.00324497 16.92903717 -0.00196279 18.4375 0 C19.13253128 -0.00202423 19.82756256 -0.00404846 20.5436554 -0.00613403 C26.3713967 0.02139618 32.20318151 0.12438233 37.41796875 2.9453125 C38.08441406 3.30238281 38.75085938 3.65945313 39.4375 4.02734375 C40.09105469 4.39214844 40.74460937 4.75695312 41.41796875 5.1328125 C42.35189453 5.63361328 42.35189453 5.63361328 43.3046875 6.14453125 C46.97182798 8.1570834 50.31921934 10.31576758 53.41796875 13.1328125 C53.41796875 13.7928125 53.41796875 14.4528125 53.41796875 15.1328125 C54.00191406 15.37128906 54.58585938 15.60976563 55.1875 15.85546875 C57.87688531 17.39562461 59.23987902 19.10579158 61.10546875 21.5703125 C62.00845703 22.74400391 62.00845703 22.74400391 62.9296875 23.94140625 C64.41796875 26.1328125 64.41796875 26.1328125 65.41796875 29.1328125 C66.07796875 29.4628125 66.73796875 29.7928125 67.41796875 30.1328125 C67.57265625 29.2665625 67.57265625 29.2665625 67.73046875 28.3828125 C68.5269334 25.77620092 69.60862152 24.1592814 71.41796875 22.1328125 C72.07796875 22.1328125 72.73796875 22.1328125 73.41796875 22.1328125 C73.80662109 21.24335938 73.80662109 21.24335938 74.203125 20.3359375 C75.50541346 17.97423109 76.81095353 16.62394804 78.85546875 14.8828125 C79.75072266 14.10164063 79.75072266 14.10164063 80.6640625 13.3046875 C82.41796875 12.1328125 82.41796875 12.1328125 85.41796875 12.1328125 C85.41796875 11.4728125 85.41796875 10.8128125 85.41796875 10.1328125 C87.55997698 9.02067452 89.70614967 7.91816613 91.85546875 6.8203125 C92.44779297 6.51158203 93.04011719 6.20285156 93.65039062 5.88476562 C95.55330789 4.91804295 97.47430412 4.0146493 99.41796875 3.1328125 C100.04453369 2.83802002 100.67109863 2.54322754 101.31665039 2.23950195 C108.89687398 -0.8294402 116.95688947 -0.1955142 124.98046875 -0.0546875 C126.48110634 -0.03961142 127.9817586 -0.02592819 129.48242188 -0.01367188 C133.12791327 0.01909768 136.7728451 0.07071771 140.41796875 0.1328125 C140.41796875 0.7928125 140.41796875 1.4528125 140.41796875 2.1328125 C141.03285156 2.19339844 141.64773438 2.25398438 142.28125 2.31640625 C143.08949219 2.40019531 143.89773438 2.48398437 144.73046875 2.5703125 C145.53097656 2.65152344 146.33148437 2.73273438 147.15625 2.81640625 C149.41796875 3.1328125 149.41796875 3.1328125 152.41796875 4.1328125 C152.41796875 4.7928125 152.41796875 5.4528125 152.41796875 6.1328125 C152.99289062 6.25011719 153.5678125 6.36742187 154.16015625 6.48828125 C163.3180491 9.10255862 170.36935938 17.43969347 175.41796875 25.1328125 C176.19921875 28.5078125 176.19921875 28.5078125 176.41796875 31.1328125 C177.07796875 31.1328125 177.73796875 31.1328125 178.41796875 31.1328125 C179.08276783 33.02207873 179.72347133 34.91982204 180.35546875 36.8203125 C180.71511719 37.87605469 181.07476563 38.93179688 181.4453125 40.01953125 C184.14083602 49.80318423 183.56708303 60.63039918 183.56323242 70.6940918 C183.56827034 72.62332741 183.56827034 72.62332741 183.57341003 74.59153748 C183.58213581 78.07426682 183.58458286 81.55697153 183.58522582 85.03971076 C183.5859413 87.21859789 183.58808463 89.39747892 183.59072304 91.57636452 C183.59992878 99.18429584 183.60406273 106.79220978 183.60327148 114.40014648 C183.60266751 121.4866739 183.61329365 128.57312598 183.62901515 135.65963429 C183.64206626 141.76009309 183.64745662 147.86052712 183.64681607 153.96099979 C183.64656097 157.59830668 183.6494211 161.23554604 183.65999413 164.87283897 C183.67142498 168.91357043 183.66694348 172.95413 183.66088867 176.99487305 C183.66650818 178.2015564 183.67212769 179.40823975 183.67791748 180.65148926 C183.67162575 182.29343513 183.67162575 182.29343513 183.66520691 183.96855164 C183.66575168 184.9232368 183.66629644 185.87792196 183.66685772 186.86153698 C183.41796875 189.1328125 183.41796875 189.1328125 181.41796875 191.1328125 C178.86068935 191.34460132 176.41433561 191.43680119 173.85546875 191.43359375 C173.10837646 191.43787888 172.36128418 191.442164 171.59155273 191.44657898 C170.01124079 191.45232463 168.43090239 191.4528208 166.85058594 191.44848633 C164.42727787 191.44532465 162.0051884 191.46878658 159.58203125 191.49414062 C158.04817863 191.49641337 156.51432271 191.49711723 154.98046875 191.49609375 C153.88980103 191.50990837 153.88980103 191.50990837 152.77709961 191.52400208 C150.734375 191.50512695 150.734375 191.50512695 147.41796875 191.1328125 C145.22384616 187.84162861 145.1665172 186.87541225 145.15968323 183.05589294 C145.15285522 182.00603714 145.14602722 180.95618134 145.13899231 179.87451172 C145.14154526 178.72281494 145.14409821 177.57111816 145.14672852 176.38452148 C145.14150177 175.17119644 145.13627502 173.9578714 145.13088989 172.70777893 C145.12063253 170.06729341 145.11393012 167.42706806 145.1130085 164.78658867 C145.11106623 160.60391336 145.09300146 156.42140342 145.07225037 152.23878479 C145.0230701 141.84370465 144.99224705 131.4485793 144.97094727 121.05340576 C144.95438548 112.98547161 144.93144194 104.91767866 144.88792652 96.84983879 C144.86625418 92.70037119 144.8580827 88.55117245 144.86031926 84.40165222 C144.8582459 81.19666591 144.83685381 77.99179399 144.81860352 74.78686523 C144.82318069 73.64933807 144.82775787 72.51181091 144.83247375 71.33981323 C144.73385472 60.40653409 142.72464289 51.43948664 134.79296875 43.5078125 C130.79742375 40.36989711 126.18875033 38.74788208 121.41796875 37.1328125 C120.74636719 36.90464844 120.07476563 36.67648437 119.3828125 36.44140625 C112.4933799 34.41843117 104.85682833 33.72400449 98.41796875 37.1328125 C97.42796875 37.1328125 96.43796875 37.1328125 95.41796875 37.1328125 C95.41796875 37.7928125 95.41796875 38.4528125 95.41796875 39.1328125 C94.59296875 39.4421875 93.76796875 39.7515625 92.91796875 40.0703125 C86.56898041 43.22969003 81.70097625 49.54004596 79.41796875 56.1328125 C78.75796875 56.1328125 78.09796875 56.1328125 77.41796875 56.1328125 C77.08796875 58.4428125 76.75796875 60.7528125 76.41796875 63.1328125 C75.75796875 63.1328125 75.09796875 63.1328125 74.41796875 63.1328125 C74.4146586 63.78033918 74.41134846 64.42786587 74.407938 65.09501457 C74.32679509 80.83484767 74.23473154 96.57457299 74.13044167 112.31426811 C74.08027298 119.92580013 74.03383067 127.53732114 73.99609375 135.14892578 C73.96320128 141.781504 73.92338549 148.4139979 73.87517869 155.04648316 C73.84988621 158.55987392 73.82811321 162.07320855 73.81462479 165.58666611 C73.79945508 169.50433097 73.76883157 173.42179017 73.73681641 177.33935547 C73.73357613 179.09585922 73.73357613 179.09585922 73.73027039 180.8878479 C73.7191069 181.95078064 73.70794342 183.01371338 73.69644165 184.1088562 C73.69091089 185.03617994 73.68538013 185.96350368 73.67968178 186.91892815 C73.41796875 189.1328125 73.41796875 189.1328125 71.41796875 191.1328125 C68.86046422 191.3323822 66.41358734 191.41268076 63.85546875 191.3984375 C63.10837646 191.40035095 62.36128418 191.4022644 61.59155273 191.40423584 C60.01122704 191.40559748 58.43089017 191.4019025 56.85058594 191.39355469 C54.42747953 191.3828545 52.00511452 191.39345029 49.58203125 191.40625 C48.04817544 191.4049284 46.5143201 191.402366 44.98046875 191.3984375 C44.25335693 191.40248596 43.52624512 191.40653442 42.77709961 191.41070557 C37.64789236 191.36273611 37.64789236 191.36273611 35.41796875 189.1328125 C35.16184235 186.99650669 35.16184235 186.99650669 35.1529541 184.29676819 C35.14468094 183.27497467 35.13640778 182.25318115 35.12788391 181.20042419 C35.12886581 180.0747554 35.12984772 178.94908661 35.13085938 177.78930664 C35.12402634 176.60699463 35.1171933 175.42468262 35.1101532 174.20654297 C35.0929646 170.95600353 35.08446163 167.7055695 35.07911491 164.45499349 C35.07092461 161.04745993 35.04999247 157.64000933 35.02990723 154.23252869 C34.98088545 145.55349548 34.94866695 136.87442687 34.91796875 128.1953125 C34.88484897 118.85598697 34.84866039 109.51672596 34.79383802 100.17749876 C34.77442037 96.78959201 34.75911621 93.40177101 34.75349426 90.01381111 C34.74600732 86.22273807 34.72669946 82.43188421 34.70507812 78.64086914 C34.70606003 77.53341843 34.70704193 76.42596771 34.70805359 75.28495789 C34.61771219 63.85003513 33.66966912 52.89321654 25.59375 44.16015625 C18.47611968 37.57390109 11.83700788 34.40711648 2.10546875 34.6328125 C0.85805908 34.64985229 0.85805908 34.64985229 -0.41455078 34.66723633 C-8.27830805 34.914558 -15.88278408 36.08804672 -21.64453125 41.8828125 C-22.60359375 42.9965625 -22.60359375 42.9965625 -23.58203125 44.1328125 C-24.24203125 44.1328125 -24.90203125 44.1328125 -25.58203125 44.1328125 C-25.82953125 44.6690625 -26.07703125 45.2053125 -26.33203125 45.7578125 C-27.58203125 48.1328125 -27.58203125 48.1328125 -29.51953125 50.8203125 C-39.29112522 66.51408464 -38.04772722 87.24670365 -38.09375 104.9765625 C-38.11062689 107.44235104 -38.12878109 109.90813113 -38.14814758 112.37390137 C-38.19532682 118.81151692 -38.22534276 125.24909822 -38.25158691 131.68682861 C-38.28155552 138.27696494 -38.32802923 144.86698358 -38.37304688 151.45703125 C-38.45871443 164.34889394 -38.52678299 177.24078534 -38.58203125 190.1328125 C-41.64797719 191.66578547 -44.85314978 191.25412705 -48.21484375 191.23046875 C-49.3425972 191.22834633 -49.3425972 191.22834633 -50.49313354 191.22618103 C-52.89780635 191.22057715 -55.30238652 191.20802407 -57.70703125 191.1953125 C-59.33593616 191.190298 -60.96484252 191.185735 -62.59375 191.18164062 C-66.58987952 191.17060647 -70.58593967 191.15333929 -74.58203125 191.1328125 C-74.58203125 190.4728125 -74.58203125 189.8128125 -74.58203125 189.1328125 C-75.24203125 189.1328125 -75.90203125 189.1328125 -76.58203125 189.1328125 C-76.65204563 165.3244098 -76.70498225 141.51602248 -76.73746777 117.70753765 C-76.75295082 106.65337881 -76.77406778 95.59928386 -76.80834961 84.54516602 C-76.83820798 74.91281318 -76.85759578 65.2805066 -76.86429673 55.64810878 C-76.86821504 50.54563314 -76.87745338 45.44328986 -76.89922142 40.34085655 C-76.91953033 35.54172146 -76.92587642 30.74277368 -76.92135429 25.9435997 C-76.92218201 24.17909923 -76.92818089 22.41459272 -76.93964767 20.65012932 C-76.95450449 18.24684141 -76.95101017 15.84426708 -76.9427948 13.44096375 C-76.95153332 12.73765873 -76.96027185 12.03435372 -76.96927518 11.30973643 C-76.94297392 8.47653309 -76.88402182 6.5731332 -75.25664234 4.20031452 C-72.48320507 2.43235185 -69.81818876 2.74300585 -66.578125 2.734375 C-65.5594912 2.73006973 -65.5594912 2.73006973 -64.52027893 2.72567749 C-63.08715987 2.72363878 -61.65401287 2.72915527 -60.22094727 2.74169922 C-58.02362171 2.75778256 -55.82812839 2.74183349 -53.63085938 2.72265625 C-52.23827718 2.72463823 -50.84569613 2.72848098 -49.453125 2.734375 C-48.1839624 2.73775879 -46.9147998 2.74114258 -45.60717773 2.74462891 C-44.10973022 2.93677979 -44.10973022 2.93677979 -42.58203125 3.1328125 C-40.38010901 6.43569586 -40.34243157 7.40743977 -40.38671875 11.23828125 C-40.39316406 12.22119141 -40.39960938 13.20410156 -40.40625 14.21679688 C-40.42300781 15.24095703 -40.43976563 16.26511719 -40.45703125 17.3203125 C-40.46605469 18.35607422 -40.47507812 19.39183594 -40.484375 20.45898438 C-40.50795265 23.01715935 -40.54086095 25.57486998 -40.58203125 28.1328125 C-39.92203125 28.1328125 -39.26203125 28.1328125 -38.58203125 28.1328125 C-38.49953125 27.41867187 -38.41703125 26.70453125 -38.33203125 25.96875 C-36.0898661 17.49056302 -26.97815945 9.48194422 -19.58203125 5.1328125 C-16.86547543 4.12768685 -14.45803484 3.60343127 -11.58203125 3.1328125 C-11.58203125 2.4728125 -11.58203125 1.8128125 -11.58203125 1.1328125 C-7.76458211 -0.09712552 -3.96559648 -0.01144949 0 0 Z " fill="#7EB4B5" transform="translate(397.58203125,339.8671875)"/>
<path d="M0 0 C6.6 0 13.2 0 20 0 C20 0.66 20 1.32 20 2 C20.99 1.9175 21.98 1.835 23 1.75 C31.41925222 1.75 40.07112768 8.59426347 46 14 C46 14.99 46 15.98 46 17 C46.66 17 47.32 17 48 17 C48.84212256 18.91282125 49.67338864 20.83042473 50.5 22.75 C51.19609375 24.35101563 51.19609375 24.35101563 51.90625 25.984375 C53 29 53 29 53 33 C53.66 33 54.32 33 55 33 C56.0251393 38.08734965 56.16102968 42.96845027 56.16796875 48.1328125 C56.17296135 49.44244461 56.17296135 49.44244461 56.17805481 50.77853394 C56.18310227 52.62253292 56.18546381 54.46654099 56.18530273 56.31054688 C56.18747674 59.09521051 56.20562127 61.87946947 56.22460938 64.6640625 C56.28098961 82.22488097 55.36499453 99.41514053 43 113 C42.26136719 113.82371094 42.26136719 113.82371094 41.5078125 114.6640625 C40.1875 116.0625 40.1875 116.0625 38 118 C37.34 118 36.68 118 36 118 C36 118.66 36 119.32 36 120 C33.67782838 121.03756604 31.35183156 122.03322728 29 123 C28.36803711 123.26804443 27.73607422 123.53608887 27.08496094 123.81225586 C20.44422496 126.34588596 14.23087422 126.38219236 7.1875 126.25 C5.51010742 126.24226563 5.51010742 126.24226563 3.79882812 126.234375 C-5.10127983 126.14895105 -5.10127983 126.14895105 -9 125 C-9 124.34 -9 123.68 -9 123 C-9.7425 123.05414063 -10.485 123.10828125 -11.25 123.1640625 C-16.42760865 122.85517108 -20.11941595 118.9257904 -23.625 115.3359375 C-27 111.44318182 -27 111.44318182 -27 109 C-27.66 109 -28.32 109 -29 109 C-30.13215078 106.00265117 -31.25437469 103.00167493 -32.375 100 C-32.69210938 99.16082031 -33.00921875 98.32164062 -33.3359375 97.45703125 C-33.6453125 96.62558594 -33.9546875 95.79414063 -34.2734375 94.9375 C-34.69761963 93.80634766 -34.69761963 93.80634766 -35.13037109 92.65234375 C-37.88485531 84.25124423 -38.37251812 76.53575073 -38.37060547 67.74902344 C-38.3749367 65.53239571 -38.41121142 63.3178338 -38.44921875 61.1015625 C-38.528565 50.86026944 -36.9402753 41.79443177 -34 32 C-33.76410156 31.19312744 -33.52820313 30.38625488 -33.28515625 29.55493164 C-31.5271763 24.2491349 -28.59213971 19.27502044 -25 15 C-24.01 14.67 -23.02 14.34 -22 14 C-21.32445207 12.6711444 -20.65881791 11.33722892 -20 10 C-13.81584643 4.29365079 -8.48703081 1.66717526 0 2 C0 1.34 0 0.68 0 0 Z " fill="#2B3338" transform="translate(190,374)"/>
<path d="M0 0 C3.58048947 1.24979349 6.66342315 3.29833021 9.8359375 5.34765625 C12.1043549 6.8606062 12.1043549 6.8606062 15.0703125 7.72265625 C15.0703125 8.38265625 15.0703125 9.04265625 15.0703125 9.72265625 C15.74835937 9.965 16.42640625 10.20734375 17.125 10.45703125 C20.68456662 11.98660629 23.90683519 13.94393552 27.1953125 15.97265625 C33.39295094 19.7453949 39.67594209 23.29249786 46.0703125 26.72265625 C49.07509409 28.3807693 52.07342712 30.05032021 55.0703125 31.72265625 C55.0703125 32.38265625 55.0703125 33.04265625 55.0703125 33.72265625 C55.77027344 33.81289063 56.47023438 33.903125 57.19140625 33.99609375 C60.68678812 34.87823897 63.10028218 36.40112501 66.1328125 38.34765625 C67.29093204 39.08058917 68.44980256 39.81233664 69.609375 40.54296875 C70.18977539 40.91067383 70.77017578 41.27837891 71.36816406 41.65722656 C75.86086338 44.46935218 80.47830078 47.07738267 85.0703125 49.72265625 C86.32293349 50.44918974 87.57553692 51.17575351 88.828125 51.90234375 C90.09617983 52.63441664 91.36440609 53.36619268 92.6328125 54.09765625 C93.22892334 54.44376953 93.82503418 54.78988281 94.43920898 55.14648438 C96.96919935 56.59905471 99.29266358 57.79677328 102.0703125 58.72265625 C102.0703125 59.38265625 102.0703125 60.04265625 102.0703125 60.72265625 C102.89402344 60.94953125 103.71773437 61.17640625 104.56640625 61.41015625 C108.82901767 63.00685351 112.33728086 65.24191662 116.1328125 67.72265625 C122.31479951 71.76935899 122.31479951 71.76935899 129.0703125 74.72265625 C129.0703125 75.38265625 129.0703125 76.04265625 129.0703125 76.72265625 C129.6271875 76.97015625 130.1840625 77.21765625 130.7578125 77.47265625 C133.70319854 79.06475681 135.73320594 80.26716684 138.0703125 82.72265625 C138.79982155 85.88043722 138.72332764 88.93341385 138.6328125 92.16015625 C138.64376953 93.00642578 138.65472656 93.85269531 138.66601562 94.72460938 C138.62109674 98.54870338 138.40355072 101.10797849 136.5625 104.50390625 C133.19824972 107.49903816 129.56422138 109.6129773 125.6328125 111.78515625 C120.78575941 114.50200232 116.41163639 117.23655142 112.0703125 120.72265625 C110.09039006 121.76184206 108.08788221 122.75859585 106.0703125 123.72265625 C103.4672274 125.10405663 100.89249737 126.5346704 98.3203125 127.97265625 C97.61801514 128.36453125 96.91571777 128.75640625 96.19213867 129.16015625 C91.27834129 131.94127414 86.66829295 134.9689661 82.18359375 138.41015625 C79.80827924 139.8853978 77.82180694 140.33715791 75.0703125 140.72265625 C75.0703125 141.38265625 75.0703125 142.04265625 75.0703125 142.72265625 C69.8495788 146.58831018 64.40636925 149.34525261 58.0703125 150.72265625 C58.0703125 151.38265625 58.0703125 152.04265625 58.0703125 152.72265625 C57.0803125 152.72265625 56.0903125 152.72265625 55.0703125 152.72265625 C55.0703125 153.38265625 55.0703125 154.04265625 55.0703125 154.72265625 C53.9565625 155.25890625 52.8428125 155.79515625 51.6953125 156.34765625 C36.9238925 163.69370311 36.9238925 163.69370311 24.0703125 173.72265625 C22.42182557 174.42315833 20.77223313 175.12121345 19.11621094 175.80371094 C15.30848895 177.51400516 11.77314018 179.70712831 8.1953125 181.84765625 C7.42445313 182.30269531 6.65359375 182.75773438 5.859375 183.2265625 C2.2631469 185.20372639 2.2631469 185.20372639 -0.9296875 187.72265625 C-4.65193349 188.01651778 -5.70754993 187.87074796 -8.9296875 185.72265625 C-9.27026367 182.64990234 -9.27026367 182.64990234 -9.22265625 178.74609375 C-9.21841141 178.06084625 -9.21416656 177.37559875 -9.20979309 176.66958618 C-9.19298503 174.47854496 -9.15533155 172.28841993 -9.1171875 170.09765625 C-9.10214329 168.61329452 -9.08845443 167.1289184 -9.07617188 165.64453125 C-9.0430754 162.00360792 -8.99127957 158.36322147 -8.9296875 154.72265625 C-8.2696875 154.72265625 -7.6096875 154.72265625 -6.9296875 154.72265625 C-6.70531006 154.13387695 -6.48093262 153.54509766 -6.24975586 152.93847656 C-4.5368271 150.0632146 -2.66476624 148.99905173 0.19140625 147.26953125 C1.20912109 146.65078125 2.22683594 146.03203125 3.27539062 145.39453125 C4.34208984 144.7603125 5.40878906 144.12609375 6.5078125 143.47265625 C8.10206055 142.498125 8.10206055 142.498125 9.72851562 141.50390625 C17.6688058 136.72265625 17.6688058 136.72265625 21.0703125 136.72265625 C21.0703125 136.06265625 21.0703125 135.40265625 21.0703125 134.72265625 C22.81712543 133.73781517 24.5678976 132.75999438 26.3203125 131.78515625 C27.29484375 131.23988281 28.269375 130.69460938 29.2734375 130.1328125 C31.60641659 128.9565479 33.52382012 128.20163934 36.0703125 127.72265625 C36.0703125 127.06265625 36.0703125 126.40265625 36.0703125 125.72265625 C36.99263672 125.21605469 36.99263672 125.21605469 37.93359375 124.69921875 C38.74183594 124.25320313 39.55007813 123.8071875 40.3828125 123.34765625 C41.18332031 122.90679687 41.98382812 122.4659375 42.80859375 122.01171875 C44.60559193 120.9875229 46.34931958 119.86998487 48.0703125 118.72265625 C49.0603125 118.72265625 50.0503125 118.72265625 51.0703125 118.72265625 C51.0703125 118.06265625 51.0703125 117.40265625 51.0703125 116.72265625 C51.905625 116.26826172 51.905625 116.26826172 52.7578125 115.8046875 C57.37054292 113.27236083 61.85851952 110.6449342 66.24609375 107.73828125 C68.0703125 106.72265625 68.0703125 106.72265625 70.23828125 106.20703125 C70.84285156 106.0471875 71.44742188 105.88734375 72.0703125 105.72265625 C72.4003125 105.06265625 72.7303125 104.40265625 73.0703125 103.72265625 C73.6890625 103.57828125 74.3078125 103.43390625 74.9453125 103.28515625 C77.1079514 102.91065136 77.1079514 102.91065136 78.31640625 101.41796875 C80.70299949 99.11110579 83.37837181 97.67612783 86.2578125 96.03515625 C87.34449219 95.41253906 88.43117188 94.78992188 89.55078125 94.1484375 C90.38222656 93.67792969 91.21367188 93.20742188 92.0703125 92.72265625 C89.50802289 89.73331837 86.6048435 88.38136736 83.0703125 86.72265625 C69.13958961 79.92446348 69.13958961 79.92446348 63.0703125 75.72265625 C63.0703125 75.06265625 63.0703125 74.40265625 63.0703125 73.72265625 C62.33893066 73.60857422 61.60754883 73.49449219 60.85400391 73.37695312 C57.99068121 72.7039392 56.04488825 71.75809673 53.53125 70.25390625 C52.70367188 69.76535156 51.87609375 69.27679688 51.0234375 68.7734375 C50.17265625 68.26167969 49.321875 67.74992187 48.4453125 67.22265625 C46.74622252 66.20983535 45.04575875 65.19931456 43.34375 64.19140625 C42.59528809 63.74216797 41.84682617 63.29292969 41.07568359 62.83007812 C38.97115272 61.58861125 38.97115272 61.58861125 36.0703125 60.72265625 C36.0703125 60.06265625 36.0703125 59.40265625 36.0703125 58.72265625 C34.7503125 58.39265625 33.4303125 58.06265625 32.0703125 57.72265625 C32.0703125 57.06265625 32.0703125 56.40265625 32.0703125 55.72265625 C31.4103125 55.64015625 30.7503125 55.55765625 30.0703125 55.47265625 C22.99787125 53.70454594 16.83043732 49.44021527 10.7578125 45.53515625 C9.36775428 44.64291502 7.97589727 43.75346837 6.58203125 42.8671875 C5.97834717 42.47893799 5.37466309 42.09068848 4.75268555 41.69067383 C2.92038667 40.56210473 2.92038667 40.56210473 0.0703125 39.72265625 C0.0703125 39.06265625 0.0703125 38.40265625 0.0703125 37.72265625 C-1.1053125 37.53703125 -1.1053125 37.53703125 -2.3046875 37.34765625 C-4.9296875 36.72265625 -4.9296875 36.72265625 -6.9296875 34.72265625 C-6.9296875 33.73265625 -6.9296875 32.74265625 -6.9296875 31.72265625 C-7.5896875 31.72265625 -8.2496875 31.72265625 -8.9296875 31.72265625 C-9.02862203 27.64769522 -9.10118444 23.57319969 -9.14941406 19.49731445 C-9.16952025 18.11112287 -9.19680995 16.725016 -9.23144531 15.33911133 C-9.27999975 13.34623719 -9.30052722 11.35274236 -9.3203125 9.359375 C-9.34125977 8.16014404 -9.36220703 6.96091309 -9.38378906 5.7253418 C-8.9296875 2.72265625 -8.9296875 2.72265625 -7.10058594 0.81176758 C-4.56616192 -0.45971977 -2.7772854 -0.5229953 0 0 Z " fill="#7EB4B5" transform="translate(634.9296875,354.27734375)"/>
<path d="M0 0 C0.33 0 0.66 0 1 0 C2.00010482 14.25122791 2.13179359 28.44447686 2.09765625 42.7265625 C2.09578631 45.05496185 2.09436513 47.38336159 2.09336853 49.71176147 C2.08958869 55.77784349 2.07979827 61.84390076 2.06866455 67.90997314 C2.05835182 74.12487453 2.05384999 80.33977999 2.04882812 86.5546875 C2.03817097 98.70313575 2.02115048 110.8515658 2 123 C2.89831543 122.98952637 3.79663086 122.97905273 4.72216797 122.96826172 C8.05064447 122.9342053 11.37893622 122.90911382 14.70751953 122.89013672 C16.14895547 122.88007037 17.59037095 122.8664162 19.03173828 122.84912109 C21.10193934 122.82489988 23.17187076 122.81352359 25.2421875 122.8046875 C27.11173096 122.78897705 27.11173096 122.78897705 29.01904297 122.77294922 C32 123 32 123 34 125 C29.31860746 125.02465288 24.63725241 125.04283739 19.95581055 125.05493164 C18.36205386 125.05997157 16.76830181 125.0668035 15.17456055 125.07543945 C12.88849747 125.08751999 10.60249533 125.09323155 8.31640625 125.09765625 C7.59973282 125.10281754 6.88305939 125.10797882 6.14466858 125.11329651 C4.42936328 125.11349263 2.71418734 125.06192007 1 125 C0 124 0 124 -0.12304783 121.94039822 C-0.12212604 121.02690137 -0.12120424 120.11340452 -0.12025452 119.17222595 C-0.12162918 118.12749619 -0.12300385 117.08276642 -0.12442017 116.00637817 C-0.12082489 114.85048187 -0.11722961 113.69458557 -0.11352539 112.50366211 C-0.11367142 111.29407333 -0.11381744 110.08448456 -0.1139679 108.83824158 C-0.11338893 105.51193649 -0.10835973 102.18569281 -0.10139394 98.8593986 C-0.09515978 95.38670071 -0.09455655 91.91400207 -0.09336853 88.44129944 C-0.0902554 81.86103807 -0.08204225 75.28079324 -0.07201904 68.70053917 C-0.06085734 61.21093888 -0.05534731 53.72133782 -0.05032361 46.2317313 C-0.03985962 30.82114461 -0.02226053 15.41057443 0 0 Z " fill="#87C3C2" transform="translate(434,406)"/>
<path d="M0 0 C0.87069109 3.01029284 1.1293661 5.6973032 1.14044189 8.82667542 C1.14615204 9.79546631 1.15186218 10.7642572 1.15774536 11.7624054 C1.15886322 12.81864609 1.15998108 13.87488678 1.16113281 14.96313477 C1.16858017 16.63927353 1.16858017 16.63927353 1.17617798 18.34927368 C1.19078732 22.04665745 1.19759811 25.74399836 1.203125 29.44140625 C1.20887561 32.00683087 1.21463335 34.57225547 1.22039795 37.13768005 C1.22956068 41.82800859 1.23586369 46.51831995 1.2388947 51.20865589 C1.24338174 58.11370358 1.26096505 65.01855394 1.2898953 71.92354161 C1.31409041 77.90577157 1.32183756 83.88790789 1.32357025 89.87019157 C1.32660474 92.41598526 1.33465987 94.96177794 1.34775543 97.50753975 C1.36473416 101.06060059 1.36295602 104.61317527 1.35644531 108.16625977 C1.37026749 109.75365715 1.37026749 109.75365715 1.3843689 111.37312317 C1.37879974 112.33909424 1.37323059 113.30506531 1.36749268 114.30030823 C1.36895924 115.14039712 1.3704258 115.98048601 1.3719368 116.84603214 C0.90818394 119.531727 0.19409681 120.4148443 -2 122 C-4.72906362 122.26156261 -7.2246099 122.34921131 -9.94921875 122.29296875 C-11.10814384 122.28660149 -11.10814384 122.28660149 -12.29048157 122.28010559 C-14.75650992 122.26332183 -17.22171896 122.22567147 -19.6875 122.1875 C-21.36001423 122.17245271 -23.03254128 122.15876438 -24.70507812 122.14648438 C-28.80370078 122.11341946 -32.90171151 122.06164028 -37 122 C-37 121.67 -37 121.34 -37 121 C-19.675 120.505 -19.675 120.505 -2 120 C-2.01571045 115.02691772 -2.01571045 115.02691772 -2.03173828 109.95336914 C-2.06491497 98.98509282 -2.08698448 88.01681426 -2.10362434 77.04850101 C-2.11405036 70.40006041 -2.12818808 63.75168502 -2.15087891 57.10327148 C-2.17264925 50.6842085 -2.18457752 44.26519501 -2.18975449 37.84609795 C-2.1934427 35.40016336 -2.20064483 32.9542314 -2.21146011 30.50831795 C-2.22603054 27.07588017 -2.2279756 23.64364549 -2.22705078 20.21118164 C-2.23424133 19.20560715 -2.24143188 18.20003265 -2.24884033 17.16398621 C-2.23133998 11.14021126 -1.51408353 5.83526566 0 0 Z " fill="#42585D" transform="translate(361,410)"/>
<path d="M0 0 C0.33 0 0.66 0 1 0 C0.85530469 1.79175893 0.70916739 3.58340142 0.5625 5.375 C0.48128906 6.37273437 0.40007812 7.37046875 0.31640625 8.3984375 C0.14781052 10.31751487 -0.02664852 12.23641658 -0.24243069 14.15076256 C-0.94296605 20.46390808 -1.1678048 26.70069169 -1.20532227 33.04931641 C-1.21522186 34.10416229 -1.22512146 35.15900818 -1.23532104 36.24581909 C-1.26665591 39.69771152 -1.29158154 43.14961765 -1.31640625 46.6015625 C-1.33700003 49.00866025 -1.3579971 51.41575458 -1.37937927 53.82284546 C-1.43434972 60.13231625 -1.48386853 66.4418183 -1.53222656 72.75134277 C-1.58262527 79.20014196 -1.63821509 85.64889621 -1.69335938 92.09765625 C-1.80063446 104.73173212 -1.90232294 117.36584646 -2 130 C-2.33 130 -2.66 130 -3 130 C-4.06458189 95.69837887 -4.46534525 61.39950336 -3.73553467 27.08532715 C-3.70401545 25.55294026 -3.67673267 24.02045915 -3.65411377 22.48791504 C-3.52815628 14.50287925 -3.09176493 7.46002262 0 0 Z " fill="#88C4C3" transform="translate(472,398)"/>
<path d="M0 0 C0 0.66 0 1.32 0 2 C-1.65 2 -3.3 2 -5 2 C-6.11388527 11.34847414 -6.12979161 20.64716808 -6.09765625 30.04296875 C-6.09578708 31.66392472 -6.09436554 33.28488127 -6.09336853 34.90583801 C-6.08958264 39.13568734 -6.07978673 43.36550136 -6.06866455 47.59533691 C-6.05836515 51.9261833 -6.05385278 56.25703548 -6.04882812 60.58789062 C-6.03816024 69.0586098 -6.02113206 77.52930049 -6 86 C-6.99 86.495 -6.99 86.495 -8 87 C-8.06944326 76.09961336 -8.12278238 65.19927915 -8.15543652 54.29871655 C-8.17110713 49.23739509 -8.19237087 44.17622472 -8.22631836 39.11499023 C-8.25886203 34.23261844 -8.27684249 29.35039217 -8.28463173 24.4679203 C-8.29018422 22.60313945 -8.30102662 20.73836676 -8.31719017 18.87364769 C-8.33889822 16.26609318 -8.34196973 13.65914368 -8.34057617 11.05151367 C-8.351362 10.27683746 -8.36214783 9.50216125 -8.3732605 8.70401001 C-8.34310054 3.5048964 -8.34310054 3.5048964 -6.64668274 1.00849915 C-4.37767631 -0.38113772 -2.60531323 -0.21124161 0 0 Z " fill="#87C3C2" transform="translate(330,344)"/>
<path d="M0 0 C0.33 0 0.66 0 1 0 C0.93148331 0.85517212 0.86296661 1.71034424 0.79237366 2.59143066 C-0.14748094 15.66995591 -0.22351153 28.73610314 -0.31640625 41.84375 C-0.33702097 44.3095328 -0.35801847 46.77531242 -0.37937927 49.24108887 C-0.43413404 55.67870486 -0.48374549 62.11635023 -0.53222656 68.55401611 C-0.58278551 75.14410972 -0.63829061 81.73416156 -0.69335938 88.32421875 C-0.80036953 101.21610979 -0.90210572 114.10803668 -1 127 C-1.33 127 -1.66 127 -2 127 C-2.15427971 112.42212954 -2.3023005 97.84420661 -2.4429636 83.26619816 C-2.50842694 76.49668645 -2.57590299 69.7272062 -2.64819336 62.95776367 C-2.7179821 56.42204081 -2.78206126 49.88627625 -2.84269524 43.35046196 C-2.86672719 40.8598587 -2.89265611 38.36927298 -2.92053413 35.87870979 C-2.95932349 32.38409286 -2.99130128 28.88947378 -3.02172852 25.39477539 C-3.03467453 24.37049942 -3.04762054 23.34622345 -3.06095886 22.29090881 C-3.17590484 6.56353667 -3.17590484 6.56353667 0 0 Z " fill="#82BCBB" transform="translate(360,403)"/>
<path d="M0 0 C0.33 0 0.66 0 1 0 C3.25046712 7.86770448 3.30662782 15.55616181 3.26074219 23.66821289 C3.24990861 25.95680536 3.26074356 28.24463277 3.2734375 30.53320312 C3.27211782 31.98958506 3.26955939 33.44596653 3.265625 34.90234375 C3.26336914 36.21710693 3.26111328 37.53187012 3.25878906 38.88647461 C3 42 3 42 1 44 C0.85438595 39.9839955 0.71216006 35.96788504 0.57275391 31.95166016 C0.50201647 29.93255724 0.42877926 27.91354238 0.35546875 25.89453125 C0.05759206 17.25610734 -0.06066455 8.64301273 0 0 Z " fill="#8BC8C7" transform="translate(246,408)"/>
<path d="M0 0 C0.33 0 0.66 0 1 0 C1.19539727 4.58527112 1.37354293 9.1708071 1.53710938 13.75732422 C1.59477913 15.3108834 1.6568075 16.86428818 1.72363281 18.41748047 C2.84114253 44.61123099 2.84114253 44.61123099 -1.57568359 49.87939453 C-2.04570801 50.24919434 -2.51573242 50.61899414 -3 51 C-2.86722656 49.9996875 -2.73445312 48.999375 -2.59765625 47.96875 C-0.63920839 32.02905766 -0.36541969 16.03835929 0 0 Z " fill="#74A7A7" transform="translate(246,422)"/>
<path d="M0 0 C0.33 0 0.66 0 1 0 C1.02892385 4.12498538 1.04677267 8.24994485 1.0625 12.375 C1.07087891 13.550625 1.07925781 14.72625 1.08789062 15.9375 C1.09111328 17.05898438 1.09433594 18.18046875 1.09765625 19.3359375 C1.10289307 20.37282715 1.10812988 21.4097168 1.11352539 22.47802734 C1 25 1 25 0 27 C-4.29 27 -8.58 27 -13 27 C-13 26.67 -13 26.34 -13 26 C-9.37 26 -5.74 26 -2 26 C-2.020625 24.80375 -2.04125 23.6075 -2.0625 22.375 C-2.06693792 19.83651112 -1.93721852 17.63900649 -1.5 15.125 C-0.90877482 11.42984261 -0.97199209 7.90532631 -1.0625 4.171875 C-1 2 -1 2 0 0 Z " fill="#85C1C0" transform="translate(281,572)"/>
<path d="M0 0 C9.57 0 19.14 0 29 0 C29 0.66 29 1.32 29 2 C12.665 2.495 12.665 2.495 -4 3 C-2.68 2.67 -1.36 2.34 0 2 C0 1.34 0 0.68 0 0 Z " fill="#8AC8C6" transform="translate(392,340)"/>
<path d="M0 0 C4.2498709 -0.08708752 8.49951239 -0.14042181 12.75 -0.1875 C13.9565625 -0.21263672 15.163125 -0.23777344 16.40625 -0.26367188 C17.56640625 -0.27333984 18.7265625 -0.28300781 19.921875 -0.29296875 C20.99018555 -0.3086792 22.05849609 -0.32438965 23.15917969 -0.34057617 C26 0 26 0 30 3 C15.15 2.505 15.15 2.505 0 2 C0 1.34 0 0.68 0 0 Z " fill="#87C5C4" transform="translate(181,340)"/>
<path d="M0 0 C0.33 0 0.66 0 1 0 C1.23927829 21.18942162 1.23927829 21.18942162 0 27 C-0.66 27.33 -1.32 27.66 -2 28 C-2.38297872 8.46808511 -2.38297872 8.46808511 0 0 Z " fill="#85BFBE" transform="translate(151,417)"/>
<path d="M0 0 C0 2 0 2 -2.16796875 4.29296875 C-3.10253906 5.18628906 -4.03710938 6.07960938 -5 7 C-5.88300781 7.88300781 -6.76601563 8.76601563 -7.67578125 9.67578125 C-10.1171875 12.1171875 -12.55859375 14.55859375 -15 17 C-15.99 16.34 -16.98 15.68 -18 15 C-5.88311688 0 -5.88311688 0 0 0 Z " fill="#73A7A7" transform="translate(380,345)"/>
<path d="M0 0 C0.66 0.99 1.32 1.98 2 3 C-0.77240959 7.4785078 -3.7087092 11.83915153 -8 15 C-10.875 15.375 -10.875 15.375 -13 15 C-12.278125 14.29875 -11.55625 13.5975 -10.8125 12.875 C-6.83086226 8.89336226 -3.32194071 4.5458136 0 0 Z " fill="#74A8A9" transform="translate(239,478)"/>
<path d="M0 0 C-2.53421579 1.65837637 -5.07632328 3.30161556 -7.625 4.9375 C-8.33785156 5.40607422 -9.05070313 5.87464844 -9.78515625 6.35742188 C-13.86145601 8.95653044 -17.05904057 10.63371436 -22 11 C-17.40071311 7.01395136 -12.27184228 4.00023544 -7 1 C-6.30003906 0.59007812 -5.60007812 0.18015625 -4.87890625 -0.2421875 C-3 -1 -3 -1 0 0 Z M-24 11 C-23.34 11 -22.68 11 -22 11 C-22 11.66 -22 12.32 -22 13 C-22.66 13 -23.32 13 -24 13 C-24 12.34 -24 11.68 -24 11 Z " fill="#83BDBD" transform="translate(738,479)"/>
<path d="M0 0 C1.18239258 0.00676758 1.18239258 0.00676758 2.38867188 0.01367188 C4.32164761 0.02538688 6.25458393 0.04332002 8.1875 0.0625 C8.5175 0.7225 8.8475 1.3825 9.1875 2.0625 C7.89972656 2.041875 6.61195313 2.02125 5.28515625 2 C0.34253087 2 -4.47341646 2.46543468 -9.375 3.0625 C-10.60186523 3.20558594 -10.60186523 3.20558594 -11.85351562 3.3515625 C-13.84038675 3.58394509 -15.82652794 3.82255516 -17.8125 4.0625 C-12.39653098 -0.55110324 -6.76444955 -0.07371152 0 0 Z " fill="#24282E" transform="translate(198.8125,374.9375)"/>
<path d="M0 0 C-0.99 0.33 -1.98 0.66 -3 1 C-3 1.66 -3 2.32 -3 3 C-4.390625 4.2890625 -4.390625 4.2890625 -6.25 5.625 C-6.85328125 6.07101562 -7.4565625 6.51703125 -8.078125 6.9765625 C-10 8 -10 8 -14 8 C-14.33 8.99 -14.66 9.98 -15 11 C-17.0625 11.6875 -17.0625 11.6875 -19 12 C-16.32604265 8.43472353 -13.67611266 5.54500107 -10 3 C-9.01 3 -8.02 3 -7 3 C-7 2.34 -7 1.68 -7 1 C-3.375 -1.125 -3.375 -1.125 0 0 Z " fill="#74A8A9" transform="translate(490,349)"/>
<path d="M0 0 C0.33 0 0.66 0 1 0 C1.75166913 7.69118596 2.13690844 15.27227893 2 23 C3.32 23.33 4.64 23.66 6 24 C6 24.66 6 25.32 6 26 C4.35 26 2.7 26 1 26 C-0.30475618 23.39048764 -0.11301572 21.47298715 -0.09765625 18.5546875 C-0.09443359 17.47832031 -0.09121094 16.40195312 -0.08789062 15.29296875 C-0.07951172 14.16503906 -0.07113281 13.03710938 -0.0625 11.875 C-0.05798828 10.73933594 -0.05347656 9.60367188 -0.04882812 8.43359375 C-0.03701615 5.62234362 -0.02054507 2.8111977 0 0 Z " fill="#85C2C1" transform="translate(627,515)"/>
<path d="M0 0 C0 0.66 0 1.32 0 2 C-0.99 2.495 -0.99 2.495 -2 3 C-3.01866229 4.65532623 -4.01810813 6.32260138 -5 8 C-5.66 8.66 -6.32 9.32 -7 10 C-7.99 10 -8.98 10 -10 10 C-10 10.99 -10 11.98 -10 13 C-10.99 13.495 -10.99 13.495 -12 14 C-12 14.99 -12 15.98 -12 17 C-12.99 17 -13.98 17 -15 17 C-13.63312778 13.01328937 -11.84804907 10.11505367 -9 7 C-8.34 7 -7.68 7 -7 7 C-6.731875 6.401875 -6.46375 5.80375 -6.1875 5.1875 C-3.37142857 0 -3.37142857 0 0 0 Z " fill="#323F45" transform="translate(175,381)"/>
<path d="M0 0 C0.33 0 0.66 0 1 0 C1.33 4.29 1.66 8.58 2 13 C3.32 12.34 4.64 11.68 6 11 C5.38531118 14.99547736 3.34540624 17.77506642 1 21 C0.67 21 0.34 21 0 21 C0 14.07 0 7.14 0 0 Z " fill="#1E2127" transform="translate(358,345)"/>
<path d="M0 0 C0.66 0.66 1.32 1.32 2 2 C1 3 1 3 -2.41821289 3.11352539 C-3.93636988 3.11336628 -5.45453229 3.10767226 -6.97265625 3.09765625 C-7.77029892 3.0962413 -8.56794159 3.09482635 -9.38975525 3.09336853 C-11.94737435 3.08775316 -14.50490718 3.07519812 -17.0625 3.0625 C-18.79231645 3.05748698 -20.52213426 3.05292373 -22.25195312 3.04882812 C-26.50133553 3.03777875 -30.75065312 3.02050386 -35 3 C-35 2.67 -35 2.34 -35 2 C-33.46291382 1.96241577 -33.46291382 1.96241577 -31.89477539 1.92407227 C-28.10590324 1.83015516 -24.31722119 1.72989683 -20.52856445 1.62768555 C-18.88635697 1.58427703 -17.24410261 1.54260642 -15.60180664 1.50268555 C-13.24611255 1.4451256 -10.89065572 1.38139108 -8.53515625 1.31640625 C-7.79660904 1.29969376 -7.05806183 1.28298126 -6.2971344 1.26576233 C-2.85699373 1.46451987 -2.85699373 1.46451987 0 0 Z " fill="#3C4E53" transform="translate(470,529)"/>
<path d="M0 0 C0 0.66 0 1.32 0 2 C1.1446875 2.1546875 1.1446875 2.1546875 2.3125 2.3125 C5.17059424 3.04364039 6.15742885 3.76951913 8 6 C7.67 6.99 7.34 7.98 7 9 C5.22891052 7.87540329 3.45813764 6.75030797 1.6875 5.625 C0.20830078 4.68527344 0.20830078 4.68527344 -1.30078125 3.7265625 C-3.21287929 2.50348387 -5.1114034 1.2590644 -7 0 C-3.98968256 -0.93423645 -3.13349732 -1.04449911 0 0 Z " fill="#78ABAB" transform="translate(417,375)"/>
<path d="M0 0 C0.33 0 0.66 0 1 0 C0.40711812 7.34164374 -0.238212 14.67386859 -1 22 C-1.33 22 -1.66 22 -2 22 C-3.03335117 13.94484091 -3.42546443 7.48957478 0 0 Z " fill="#84BFBE" transform="translate(472,398)"/>
<path d="M0 0 C0.66 0.33 1.32 0.66 2 1 C0.2421875 1.9765625 -1.515625 2.953125 -3.2734375 3.9296875 C-5.1612614 5.00897274 -5.1612614 5.00897274 -7 7 C-7.99 7.33 -8.98 7.66 -10 8 C-11.66710346 9.49985609 -11.66710346 9.49985609 -13 11 C-13.66 10.67 -14.32 10.34 -15 10 C-15 9.34 -15 8.68 -15 8 C-12.48046875 6.30859375 -12.48046875 6.30859375 -9.1875 4.4375 C-7.56908203 3.50744141 -7.56908203 3.50744141 -5.91796875 2.55859375 C-3 1 -3 1 0 0 Z " fill="#6FA0A2" transform="translate(161,345)"/>
<path d="M0 0 C-2.62301226 1.74867484 -5.20651868 3.23671878 -8 4.6875 C-8.86625 5.14511719 -9.7325 5.60273438 -10.625 6.07421875 C-13 7 -13 7 -16 6 C-11.97674649 1.03009861 -6.15921636 -0.45067437 0 0 Z " fill="#83BEBD" transform="translate(188,374)"/>
<path d="M0 0 C4.9399341 -0.29058436 8.09825673 -0.21320034 12 3 C12.8125 5.1875 12.8125 5.1875 13 7 C8.50202887 5.31326082 4.27113698 3.18326108 0 1 C0 0.67 0 0.34 0 0 Z " fill="#79AEAE" transform="translate(635,393)"/>
<path d="M0 0 C2.31 0.33 4.62 0.66 7 1 C7 1.99 7 2.98 7 4 C7.99 3.67 8.98 3.34 10 3 C10.99 4.65 11.98 6.3 13 8 C8.25 6.125 8.25 6.125 6 5 C6 4.34 6 3.68 6 3 C5.195625 2.87625 4.39125 2.7525 3.5625 2.625 C2.716875 2.41875 1.87125 2.2125 1 2 C0.67 1.34 0.34 0.68 0 0 Z " fill="#344349" transform="translate(644,359)"/>
<path d="M0 0 C0 0.66 0 1.32 0 2 C-0.5775 2.2475 -1.155 2.495 -1.75 2.75 C-4.12906027 3.90771209 -4.12906027 3.90771209 -5.875 6.125 C-8 8 -8 8 -11.25 8.25 C-12.1575 8.1675 -13.065 8.085 -14 8 C-11.58175817 5.58175817 -9.0519249 4.52596245 -6 3 C-5.2575 2.443125 -4.515 1.88625 -3.75 1.3125 C-2 0 -2 0 0 0 Z " fill="#38484E" transform="translate(724,488)"/>
<path d="M0 0 C0.66 0.33 1.32 0.66 2 1 C1 4 1 4 -2 6 C-4.32387947 6.39387788 -6.65793749 6.73486085 -9 7 C-6.25604436 4.05278838 -3.61662784 1.80831392 0 0 Z " fill="#3A4D51" transform="translate(760,465)"/>
<path d="M0 0 C0.66 0.33 1.32 0.66 2 1 C1 4 1 4 -1.9375 5.75 C-3.4534375 6.36875 -3.4534375 6.36875 -5 7 C-5.66 6.67 -6.32 6.34 -7 6 C-7 5.34 -7 4.68 -7 4 C-1.7265625 0.77734375 -1.7265625 0.77734375 0 0 Z " fill="#71A4A5" transform="translate(720,451)"/>
<path d="M0 0 C0.66 0.33 1.32 0.66 2 1 C1 4 1 4 -1 5 C-1.103125 5.61875 -1.20625 6.2375 -1.3125 6.875 C-2.3053936 9.94394387 -4.22209562 10.57543365 -7 12 C-5.44298069 7.32894208 -2.91552627 3.91294315 0 0 Z " fill="#3A4B50" transform="translate(372,384)"/>
<path d="M0 0 C0.66 0.33 1.32 0.66 2 1 C-2.625 5.875 -2.625 5.875 -6 7 C-6.66 6.34 -7.32 5.68 -8 5 C-6.71475739 4.13619741 -5.42157581 3.28419631 -4.125 2.4375 C-3.04605469 1.72400391 -3.04605469 1.72400391 -1.9453125 0.99609375 C-1.30335938 0.66738281 -0.66140625 0.33867187 0 0 Z " fill="#72A6A7" transform="translate(668,482)"/>
<path d="M0 0 C0.33 0.99 0.66 1.98 1 3 C-1.25 6.1875 -1.25 6.1875 -4 9 C-4.99 9 -5.98 9 -7 9 C-5.44499019 5.18315774 -2.96404505 2.80804268 0 0 Z " fill="#262B32" transform="translate(475,353)"/>
<path d="M0 0 C0.99 0.33 1.98 0.66 3 1 C1.35 2.98 -0.3 4.96 -2 7 C-2.99 6.34 -3.98 5.68 -5 5 C-3.35 3.35 -1.7 1.7 0 0 Z " fill="#7AAFAF" transform="translate(367,355)"/>
<path d="M0 0 C0 0.99 0 1.98 0 3 C-1.98 3.99 -3.96 4.98 -6 6 C-6.66 5.34 -7.32 4.68 -8 4 C-2.25 0 -2.25 0 0 0 Z " fill="#354449" transform="translate(689,509)"/>
<path d="M0 0 C0.33 0.66 0.66 1.32 1 2 C-0.4976696 4.49824035 -2.01558218 6.86004673 -4 9 C-6.8125 9.4375 -6.8125 9.4375 -9 9 C-6 6 -3 3 0 0 Z " fill="#3D5156" transform="translate(772,456)"/>
<path d="M0 0 C-1.36983503 3.16115776 -1.9890638 3.9927092 -5 6 C-7.1875 5.625 -7.1875 5.625 -9 5 C-7.87926138 4.16094435 -6.75325453 3.32892169 -5.625 2.5 C-4.99851562 2.0359375 -4.37203125 1.571875 -3.7265625 1.09375 C-2 0 -2 0 0 0 Z " fill="#82BCBC" transform="translate(768,459)"/>
<path d="M0 0 C-2.58926331 2.58926331 -4.02705279 2.37398043 -7.625 2.625 C-8.62789063 2.69976562 -9.63078125 2.77453125 -10.6640625 2.8515625 C-11.82035156 2.92503906 -11.82035156 2.92503906 -13 3 C-8.16353702 -0.22430866 -5.73060016 -0.09242903 0 0 Z " fill="#84BEBE" transform="translate(397,372)"/>
<path d="M0 0 C0.66 0.33 1.32 0.66 2 1 C1.67 1.99 1.34 2.98 1 4 C-3.455 4.495 -3.455 4.495 -8 5 C-6.35197949 1.70395897 -3.32254422 1.22409524 0 0 Z " fill="#72A5A6" transform="translate(497,343)"/>
<path d="M0 0 C3.95820859 0.56545837 6.6659053 1.80902348 10 4 C9.67 4.99 9.34 5.98 9 7 C8.34 6.67 7.68 6.34 7 6 C7 5.34 7 4.68 7 4 C6.401875 3.896875 5.80375 3.79375 5.1875 3.6875 C2.71756736 2.91123545 1.67748765 1.92911079 0 0 Z " fill="#83BFBE" transform="translate(708,399)"/>
<path d="M0 0 C2.475 0.495 2.475 0.495 5 1 C5 1.66 5 2.32 5 3 C5.66 3 6.32 3 7 3 C7 3.66 7 4.32 7 5 C7.66 5.33 8.32 5.66 9 6 C7.35 5.67 5.7 5.34 4 5 C4 4.34 4 3.68 4 3 C2.68 2.67 1.36 2.34 0 2 C0 1.34 0 0.68 0 0 Z " fill="#83BEBD" transform="translate(685,385)"/>
<path d="M0 0 C-1.625 2 -1.625 2 -4 4 C-7.25 4.25 -7.25 4.25 -10 4 C-7.39928297 0.98864344 -3.94054294 -1.97027147 0 0 Z " fill="#3D5055" transform="translate(185,377)"/>
<path d="M0 0 C0 0.66 0 1.32 0 2 C-1.6210103 2.69685498 -3.24696066 3.38222861 -4.875 4.0625 C-5.77992188 4.44535156 -6.68484375 4.82820313 -7.6171875 5.22265625 C-10 6 -10 6 -12 5 C-11.236875 4.54625 -10.47375 4.0925 -9.6875 3.625 C-3.69230769 0 -3.69230769 0 0 0 Z " fill="#87C2C2" transform="translate(167,345)"/>
<path d="M0 0 C1.79093191 -0.08086147 3.58289628 -0.13912702 5.375 -0.1875 C6.87160156 -0.23970703 6.87160156 -0.23970703 8.3984375 -0.29296875 C9.25695312 -0.19628906 10.11546875 -0.09960938 11 0 C11.66 0.99 12.32 1.98 13 3 C11.33388095 3.042721 9.66617115 3.04063832 8 3 C7.67 2.67 7.34 2.34 7 2 C4.67182036 1.63239269 2.3381615 1.29758419 0 1 C0 0.67 0 0.34 0 0 Z " fill="#85BFBF" transform="translate(421,342)"/>
<path d="M0 0 C-2.42130331 2.42130331 -3.80111377 2.52840504 -7.125 3.125 C-8.49011719 3.37636719 -8.49011719 3.37636719 -9.8828125 3.6328125 C-10.58148438 3.75398438 -11.28015625 3.87515625 -12 4 C-8.35616205 0.00912986 -5.26350451 -0.11696677 0 0 Z " fill="#86C2C1" transform="translate(508,342)"/>
<path d="M0 0 C0.66 0.33 1.32 0.66 2 1 C0.625 3 0.625 3 -1 5 C-1.66 5 -2.32 5 -3 5 C-3 5.66 -3 6.32 -3 7 C-4.65 7 -6.3 7 -8 7 C-7.236875 6.401875 -6.47375 5.80375 -5.6875 5.1875 C-3.6516425 3.53040668 -1.8021721 1.89702326 0 0 Z " fill="#3B4E53" transform="translate(234,519)"/>
<path d="M0 0 C0.33 0.66 0.66 1.32 1 2 C-3.30769231 5.93846154 -3.30769231 5.93846154 -6.8125 6.25 C-7.534375 6.1675 -8.25625 6.085 -9 6 C-6.45543849 3.03134491 -3.51005335 1.6380249 0 0 Z " fill="#3B4C51" transform="translate(678,515)"/>
<path d="M0 0 C0.66 0.66 1.32 1.32 2 2 C-3.625 6 -3.625 6 -7 6 C-7 5.34 -7 4.68 -7 4 C-4.69 2.68 -2.38 1.36 0 0 Z " fill="#82BCBC" transform="translate(671,516)"/>
<path d="M0 0 C0 0.66 0 1.32 0 2 C-0.99 2 -1.98 2 -3 2 C-3.66 3.32 -4.32 4.64 -5 6 C-6.65 6 -8.3 6 -10 6 C-7.35570758 3.077361 -4.105808 0 0 0 Z " fill="#42595D" transform="translate(739,479)"/>
<path d="M0 0 C0.33 0 0.66 0 1 0 C1.02712066 1.43739513 1.04645067 2.87493863 1.0625 4.3125 C1.07410156 5.11300781 1.08570313 5.91351563 1.09765625 6.73828125 C1 9 1 9 0 12 C-0.66 12 -1.32 12 -2 12 C-2.26252625 7.66831683 -1.29243536 4.1196377 0 0 Z " fill="#24292F" transform="translate(242,459)"/>
<path d="M0 0 C2.64 0.33 5.28 0.66 8 1 C8 1.33 8 1.66 8 2 C-0.03571429 4.27678571 -0.03571429 4.27678571 -4 3 C-3.01 3 -2.02 3 -1 3 C-0.67 2.01 -0.34 1.02 0 0 Z " fill="#334247" transform="translate(175,338)"/>
<path d="M0 0 C0.66 0.33 1.32 0.66 2 1 C-2.30769231 5.92307692 -2.30769231 5.92307692 -5.8125 6.3125 C-6.8953125 6.1578125 -6.8953125 6.1578125 -8 6 C-6.60624928 3.21249856 -4.83755139 3.10733713 -2 2 C-1.34 1.34 -0.68 0.68 0 0 Z " fill="#36444A" transform="translate(662,524)"/>
<path d="M0 0 C2 1 2 1 2 1 Z M0 1 C-0.6875 2.9375 -0.6875 2.9375 -2 5 C-4.625 5.75 -4.625 5.75 -7 6 C-7 5.34 -7 4.68 -7 4 C-2.61538462 1 -2.61538462 1 0 1 Z " fill="#84BFBF" transform="translate(756,465)"/>
<path d="M0 0 C4.40114397 0.50298788 6.71195019 2.08772731 10 5 C6.26879511 5 4.21944311 3.81968524 1 2 C0.67 1.34 0.34 0.68 0 0 Z " fill="#262C31" transform="translate(700,432)"/>
<path d="M0 0 C3.465 1.485 3.465 1.485 7 3 C6.67 3.99 6.34 4.98 6 6 C3.5625 5.25 3.5625 5.25 1 4 C0.1875 1.875 0.1875 1.875 0 0 Z " fill="#78ADAE" transform="translate(730,410)"/>
<path d="M0 0 C1.5 1 1.5 1 3 3 C3.27345479 5.71846235 3.13491285 8.25677199 3 11 C0.43383368 7.15075052 0.44902324 4.5650696 0 0 Z " fill="#87C4C2" transform="translate(575,377)"/>
<path d="M0 0 C0.6875 1.6875 0.6875 1.6875 1 4 C-0.4375 6.75 -0.4375 6.75 -2 9 C-2.66 8.01 -3.32 7.02 -4 6 C-2.68 4.02 -1.36 2.04 0 0 Z " fill="#76A9AA" transform="translate(131,370)"/>
<path d="M0 0 C3.82097239 0.53069061 6.06171403 1.49701566 9 4 C8.67 4.66 8.34 5.32 8 6 C6.66402348 5.19185349 5.331275 4.37836819 4 3.5625 C3.2575 3.11003906 2.515 2.65757812 1.75 2.19140625 C1.1725 1.79824219 0.595 1.40507812 0 1 C0 0.67 0 0.34 0 0 Z " fill="#85C1C1" transform="translate(652,366)"/>
<path d="M0 0 C3.40312738 1.05875074 6.01353231 2.00902154 9 4 C9 4.66 9 5.32 9 6 C4.64464931 4.83857315 2.35380297 3.92300495 0 0 Z " fill="#82BDBC" transform="translate(169,493)"/>
<path d="M0 0 C-0.33 0.99 -0.66 1.98 -1 3 C-2.98 3.33 -4.96 3.66 -7 4 C-2.25 0 -2.25 0 0 0 Z M-8 4 C-8 4.99 -8 5.98 -8 7 C-8.66 6.34 -9.32 5.68 -10 5 C-9.34 4.67 -8.68 4.34 -8 4 Z " fill="#83BDBC" transform="translate(713,492)"/>
<path d="M0 0 C1.53445094 3.06890187 0.54984289 5.70094266 0 9 C-0.99 9.33 -1.98 9.66 -3 10 C-2.69201674 8.51988629 -2.378482 7.04092675 -2.0625 5.5625 C-1.88847656 4.73878906 -1.71445313 3.91507812 -1.53515625 3.06640625 C-1 1 -1 1 0 0 Z " fill="#394B4F" transform="translate(159,398)"/>
<path d="M0 0 C2.64 0.33 5.28 0.66 8 1 C8 1.66 8 2.32 8 3 C5.36 2.67 2.72 2.34 0 2 C0 1.34 0 0.68 0 0 Z " fill="#83BDBC" transform="translate(214,374)"/>
<path d="M0 0 C0.66 0 1.32 0 2 0 C0.71480435 2.86697492 -0.57129254 4.97607712 -3 7 C-3.66 7 -4.32 7 -5 7 C-5 6.01 -5 5.02 -5 4 C-4.360625 3.71125 -3.72125 3.4225 -3.0625 3.125 C-0.84793921 2.17176549 -0.84793921 2.17176549 0 0 Z " fill="#85BFC0" transform="translate(476,357)"/>
<path d="M0 0 C-0.33 1.32 -0.66 2.64 -1 4 C-2.8125 4.625 -2.8125 4.625 -5 5 C-5.99 4.34 -6.98 3.68 -8 3 C-7.34 3 -6.68 3 -6 3 C-6 2.34 -6 1.68 -6 1 C-3.92446352 0.4465236 -2.15634036 0 0 0 Z " fill="#6FA0A1" transform="translate(392,340)"/>
<path d="M0 0 C3.3 0.33 6.6 0.66 10 1 C9.34 1.66 8.68 2.32 8 3 C2.54545455 2.54545455 2.54545455 2.54545455 0 0 Z " fill="#24292F" transform="translate(163,532)"/>
<path d="M0 0 C0.33 1.32 0.66 2.64 1 4 C-1.4375 6.75 -1.4375 6.75 -4 9 C-4.66 8.67 -5.32 8.34 -6 8 C-4.02 5.36 -2.04 2.72 0 0 Z " fill="#3C5155" transform="translate(242,509)"/>
<path d="M0 0 C5.41538462 -0.36923077 5.41538462 -0.36923077 8.375 1.5 C8.91125 1.995 9.4475 2.49 10 3 C8.5199159 2.88637738 7.04089926 2.75877092 5.5625 2.625 C4.73878906 2.55539062 3.91507812 2.48578125 3.06640625 2.4140625 C2.38449219 2.27742188 1.70257813 2.14078125 1 2 C0.67 1.34 0.34 0.68 0 0 Z " fill="#86BFBF" transform="translate(404,372)"/>
</svg>
